<?xml version="1.0" encoding="UTF-8"?>
<svg width="90px" height="84px" viewBox="0 0 90 84" version="1.1" xmlns="http://www.w3.org/2000/svg" xmlns:xlink="http://www.w3.org/1999/xlink">
    <!-- Generator: Sketch 48.2 (47327) - http://www.bohemiancoding.com/sketch -->
    <title>Shape</title>
    <desc>Created with Sketch.</desc>
    <defs></defs>
    <g id="Page-1" stroke="none" stroke-width="1" fill="none" fill-rule="evenodd">
        <g id="shared-folder" fill="#6988FF" fill-rule="nonzero">
            <path d="M45,48 C50,48 54,44 54,39 C54,34 50,30 45,30 C40,30 36,34 36,39 C36,44 40,48 45,48 Z M45,34 C47.8,34 50,36.2 50,39 C50,41.8 47.8,44 45,44 C42.2,44 40,41.8 40,39 C40,36.2 42.2,34 45,34 Z M46.7,51 L43.3,51 C35.4,51 29,57.4 29,65.3 C29,67.3 30.7,69 32.7,69 L57.3,69 C59.3,69 61,67.3 61,65.3 C61,57.4 54.6,51 46.7,51 Z M33,65 C33.2,59.5 37.7,55 43.3,55 L46.7,55 C52.3,55 56.8,59.5 57,65 L33,65 Z M66,43 C70.4,43 74,39.4 74,35 C74,30.6 70.4,27 66,27 C61.6,27 58,30.6 58,35 C58,39.4 61.6,43 66,43 Z M66,31 C68.2,31 70,32.8 70,35 C70,37.2 68.2,39 66,39 C63.8,39 62,37.2 62,35 C62,32.8 63.8,31 66,31 Z M81,60.9 C81,62.9 79.4,64.5 77.4,64.5 L65,64.5 C63.9,64.5 63,63.6 63,62.5 C63,61.4 63.9,60.5 65,60.5 L77,60.5 C76.8,55.5 72.6,51.5 67.6,51.5 L64.5,51.5 C63,51.5 61.6,51.8 60.2,52.5 C59.2,53 58,52.6 57.5,51.6 C57,50.6 57.4,49.4 58.4,48.9 C60.3,47.9 62.4,47.4 64.5,47.4 L67.6,47.4 C75,47.5 81,53.5 81,60.9 Z M24,43 C28.4,43 32,39.4 32,35 C32,30.6 28.4,27 24,27 C19.6,27 16,30.6 16,35 C16,39.4 19.6,43 24,43 Z M24,31 C26.2,31 28,32.8 28,35 C28,37.2 26.2,39 24,39 C21.8,39 20,37.2 20,35 C20,32.8 21.8,31 24,31 Z M27,62.5 C27,63.6 26.1,64.5 25,64.5 L12.6,64.5 C10.6,64.5 9,62.9 9,60.9 C9,53.5 15,47.5 22.4,47.5 L25.5,47.5 C27.6,47.5 29.7,48 31.6,49 C32.6,49.5 33,50.7 32.5,51.7 C32,52.7 30.8,53.1 29.8,52.6 C28.5,51.9 27,51.6 25.5,51.6 L22.4,51.6 C17.3,51.6 13.2,55.6 13,60.6 L25,60.6 C26.1,60.5 27,61.4 27,62.5 Z M80,5 L54,5 C52.9,5 52,5.9 52,7 C52,8.1 52.9,9 54,9 L80,9 C83.3,9 86,11.7 86,15 C84.3,13.7 82.3,13 80,13 L48,13 L48,9.4 C48,4.2 43.5,0 38,0 L10,0 C4.5,0 0,4.2 0,9.4 L0,82 C0,83.1 0.9,84 2,84 L88,84 C89.1,84 90,83.1 90,82 L90,81 L90,23 L90,15 C90,9.5 85.5,5 80,5 Z M4,9.4 C4,6.4 6.7,4 10,4 L38,4 C41.3,4 44,6.4 44,9.4 L44,15 C44,16.1 44.9,17 46,17 L80,17 C83.3,17 86,19.7 86,23 L86,80 L4,80 L4,9.4 Z" id="Shape"></path>
        </g>
    </g>
</svg>